ISO-10303-21;
HEADER;
/* Generated by software containing ST-Developer
 * from STEP Tools, Inc. (www.steptools.com) 
 */

FILE_DESCRIPTION(
/* description */ (''),
/* implementation_level */ '2;1');

FILE_NAME(
/* name */ 'Bottom.step',
/* time_stamp */ '2026-08-19T18:49:41-04:00',
/* author */ (''),
/* organization */ (''),
/* preprocessor_version */ 'ST-DEVELOPER v20.1',
/* originating_system */ 'Autodesk Translation Framework v15.8.0.0',
/* authorisation */ '');

FILE_SCHEMA (('AUTOMOTIVE_DESIGN { 1 0 10303 214 3 1 1 }'));
ENDSEC;

DATA;
#10=MECHANICAL_DESIGN_GEOMETRIC_PRESENTATION_REPRESENTATION('',(#13),#914);
#11=SHAPE_REPRESENTATION_RELATIONSHIP('SRR','None',#921,#12);
#12=ADVANCED_BREP_SHAPE_REPRESENTATION('',(#14),#913);
#13=STYLED_ITEM('',(#930),#14);
#14=MANIFOLD_SOLID_BREP('Body3',#530);
#15=FACE_BOUND('',#164,.T.);
#16=FACE_BOUND('',#167,.T.);
#17=FACE_BOUND('',#170,.T.);
#18=FACE_BOUND('',#173,.T.);
#19=FACE_BOUND('',#178,.T.);
#20=FACE_BOUND('',#179,.T.);
#21=FACE_BOUND('',#180,.T.);
#22=FACE_BOUND('',#181,.T.);
#23=LINE('',#778,#68);
#24=LINE('',#785,#69);
#25=LINE('',#792,#70);
#26=LINE('',#799,#71);
#27=LINE('',#806,#72);
#28=LINE('',#808,#73);
#29=LINE('',#810,#74);
#30=LINE('',#811,#75);
#31=LINE('',#815,#76);
#32=LINE('',#817,#77);
#33=LINE('',#819,#78);
#34=LINE('',#821,#79);
#35=LINE('',#823,#80);
#36=LINE('',#824,#81);
#37=LINE('',#826,#82);
#38=LINE('',#827,#83);
#39=LINE('',#830,#84);
#40=LINE('',#834,#85);
#41=LINE('',#838,#86);
#42=LINE('',#842,#87);
#43=LINE('',#845,#88);
#44=LINE('',#847,#89);
#45=LINE('',#849,#90);
#46=LINE('',#850,#91);
#47=LINE('',#861,#92);
#48=LINE('',#862,#93);
#49=LINE('',#865,#94);
#50=LINE('',#866,#95);
#51=LINE('',#868,#96);
#52=LINE('',#870,#97);
#53=LINE('',#872,#98);
#54=LINE('',#874,#99);
#55=LINE('',#876,#100);
#56=LINE('',#880,#101);
#57=LINE('',#881,#102);
#58=LINE('',#882,#103);
#59=LINE('',#886,#104);
#60=LINE('',#889,#105);
#61=LINE('',#890,#106);
#62=LINE('',#894,#107);
#63=LINE('',#897,#108);
#64=LINE('',#898,#109);
#65=LINE('',#902,#110);
#66=LINE('',#905,#111);
#67=LINE('',#906,#112);
#68=VECTOR('',#623,1.7);
#69=VECTOR('',#632,1.7);
#70=VECTOR('',#641,1.7);
#71=VECTOR('',#650,1.7);
#72=VECTOR('',#657,10.);
#73=VECTOR('',#658,10.);
#74=VECTOR('',#659,10.);
#75=VECTOR('',#660,10.);
#76=VECTOR('',#663,10.);
#77=VECTOR('',#664,10.);
#78=VECTOR('',#665,10.);
#79=VECTOR('',#666,10.);
#80=VECTOR('',#667,10.);
#81=VECTOR('',#668,10.);
#82=VECTOR('',#671,10.);
#83=VECTOR('',#672,10.);
#84=VECTOR('',#675,10.);
#85=VECTOR('',#678,10.);
#86=VECTOR('',#681,10.);
#87=VECTOR('',#684,10.);
#88=VECTOR('',#687,10.);
#89=VECTOR('',#688,10.);
#90=VECTOR('',#689,10.);
#91=VECTOR('',#690,10.);
#92=VECTOR('',#701,10.);
#93=VECTOR('',#702,10.);
#94=VECTOR('',#705,10.);
#95=VECTOR('',#706,10.);
#96=VECTOR('',#709,2.35);
#97=VECTOR('',#712,2.34999999999999);
#98=VECTOR('',#715,10.);
#99=VECTOR('',#718,2.34999999999999);
#100=VECTOR('',#721,2.35);
#101=VECTOR('',#724,10.);
#102=VECTOR('',#725,10.);
#103=VECTOR('',#726,10.);
#104=VECTOR('',#731,10.);
#105=VECTOR('',#734,10.);
#106=VECTOR('',#735,10.);
#107=VECTOR('',#740,10.);
#108=VECTOR('',#743,10.);
#109=VECTOR('',#744,10.);
#110=VECTOR('',#749,10.);
#111=VECTOR('',#752,10.);
#112=VECTOR('',#753,10.);
#113=CYLINDRICAL_SURFACE('',#552,1.7);
#114=CYLINDRICAL_SURFACE('',#556,1.69999999999999);
#115=CYLINDRICAL_SURFACE('',#560,1.7);
#116=CYLINDRICAL_SURFACE('',#564,1.7);
#117=CYLINDRICAL_SURFACE('',#582,2.35);
#118=CYLINDRICAL_SURFACE('',#583,2.34999999999999);
#119=CYLINDRICAL_SURFACE('',#585,2.34999999999999);
#120=CYLINDRICAL_SURFACE('',#586,2.35);
#121=CYLINDRICAL_SURFACE('',#588,5.);
#122=CYLINDRICAL_SURFACE('',#591,5.);
#123=CYLINDRICAL_SURFACE('',#594,5.);
#124=CYLINDRICAL_SURFACE('',#597,4.99999999999999);
#125=FACE_OUTER_BOUND('',#158,.T.);
#126=FACE_OUTER_BOUND('',#159,.T.);
#127=FACE_OUTER_BOUND('',#160,.T.);
#128=FACE_OUTER_BOUND('',#161,.T.);
#129=FACE_OUTER_BOUND('',#162,.T.);
#130=FACE_OUTER_BOUND('',#163,.T.);
#131=FACE_OUTER_BOUND('',#165,.T.);
#132=FACE_OUTER_BOUND('',#166,.T.);
#133=FACE_OUTER_BOUND('',#168,.T.);
#134=FACE_OUTER_BOUND('',#169,.T.);
#135=FACE_OUTER_BOUND('',#171,.T.);
#136=FACE_OUTER_BOUND('',#172,.T.);
#137=FACE_OUTER_BOUND('',#174,.T.);
#138=FACE_OUTER_BOUND('',#175,.T.);
#139=FACE_OUTER_BOUND('',#176,.T.);
#140=FACE_OUTER_BOUND('',#177,.T.);
#141=FACE_OUTER_BOUND('',#182,.T.);
#142=FACE_OUTER_BOUND('',#183,.T.);
#143=FACE_OUTER_BOUND('',#184,.T.);
#144=FACE_OUTER_BOUND('',#185,.T.);
#145=FACE_OUTER_BOUND('',#186,.T.);
#146=FACE_OUTER_BOUND('',#187,.T.);
#147=FACE_OUTER_BOUND('',#188,.T.);
#148=FACE_OUTER_BOUND('',#189,.T.);
#149=FACE_OUTER_BOUND('',#190,.T.);
#150=FACE_OUTER_BOUND('',#191,.T.);
#151=FACE_OUTER_BOUND('',#192,.T.);
#152=FACE_OUTER_BOUND('',#193,.T.);
#153=FACE_OUTER_BOUND('',#194,.T.);
#154=FACE_OUTER_BOUND('',#195,.T.);
#155=FACE_OUTER_BOUND('',#196,.T.);
#156=FACE_OUTER_BOUND('',#197,.T.);
#157=FACE_OUTER_BOUND('',#198,.T.);
#158=EDGE_LOOP('',(#338));
#159=EDGE_LOOP('',(#339));
#160=EDGE_LOOP('',(#340));
#161=EDGE_LOOP('',(#341));
#162=EDGE_LOOP('',(#342,#343,#344,#345));
#163=EDGE_LOOP('',(#346));
#164=EDGE_LOOP('',(#347));
#165=EDGE_LOOP('',(#348,#349,#350,#351));
#166=EDGE_LOOP('',(#352));
#167=EDGE_LOOP('',(#353));
#168=EDGE_LOOP('',(#354,#355,#356,#357));
#169=EDGE_LOOP('',(#358));
#170=EDGE_LOOP('',(#359));
#171=EDGE_LOOP('',(#360,#361,#362,#363));
#172=EDGE_LOOP('',(#364));
#173=EDGE_LOOP('',(#365));
#174=EDGE_LOOP('',(#366,#367,#368,#369));
#175=EDGE_LOOP('',(#370,#371,#372,#373,#374,#375));
#176=EDGE_LOOP('',(#376,#377,#378,#379));
#177=EDGE_LOOP('',(#380,#381,#382,#383,#384,#385,#386,#387,#388,#389,#390,
#391,#392,#393));
#178=EDGE_LOOP('',(#394));
#179=EDGE_LOOP('',(#395));
#180=EDGE_LOOP('',(#396));
#181=EDGE_LOOP('',(#397));
#182=EDGE_LOOP('',(#398,#399,#400,#401));
#183=EDGE_LOOP('',(#402,#403,#404,#405));
#184=EDGE_LOOP('',(#406,#407,#408,#409));
#185=EDGE_LOOP('',(#410,#411,#412,#413));
#186=EDGE_LOOP('',(#414,#415,#416,#417,#418,#419));
#187=EDGE_LOOP('',(#420,#421,#422,#423));
#188=EDGE_LOOP('',(#424,#425,#426,#427));
#189=EDGE_LOOP('',(#428,#429,#430,#431));
#190=EDGE_LOOP('',(#432,#433,#434,#435));
#191=EDGE_LOOP('',(#436,#437,#438,#439,#440,#441,#442,#443));
#192=EDGE_LOOP('',(#444,#445,#446,#447));
#193=EDGE_LOOP('',(#448,#449,#450,#451));
#194=EDGE_LOOP('',(#452,#453,#454,#455));
#195=EDGE_LOOP('',(#456,#457,#458,#459));
#196=EDGE_LOOP('',(#460,#461,#462,#463));
#197=EDGE_LOOP('',(#464,#465,#466,#467));
#198=EDGE_LOOP('',(#468,#469,#470,#471,#472,#473,#474,#475));
#199=CIRCLE('',#545,1.7);
#200=CIRCLE('',#547,1.69999999999999);
#201=CIRCLE('',#549,1.7);
#202=CIRCLE('',#551,1.7);
#203=CIRCLE('',#553,1.7);
#204=CIRCLE('',#555,2.35);
#205=CIRCLE('',#557,1.69999999999999);
#206=CIRCLE('',#559,2.35);
#207=CIRCLE('',#561,1.7);
#208=CIRCLE('',#563,2.34999999999999);
#209=CIRCLE('',#565,1.7);
#210=CIRCLE('',#567,2.34999999999999);
#211=CIRCLE('',#572,5.);
#212=CIRCLE('',#573,4.99999999999999);
#213=CIRCLE('',#574,5.);
#214=CIRCLE('',#575,5.);
#215=CIRCLE('',#576,2.35);
#216=CIRCLE('',#577,2.34999999999999);
#217=CIRCLE('',#578,2.34999999999999);
#218=CIRCLE('',#579,2.35);
#219=CIRCLE('',#589,5.);
#220=CIRCLE('',#592,5.);
#221=CIRCLE('',#595,5.);
#222=CIRCLE('',#598,4.99999999999999);
#223=VERTEX_POINT('',#764);
#224=VERTEX_POINT('',#767);
#225=VERTEX_POINT('',#770);
#226=VERTEX_POINT('',#773);
#227=VERTEX_POINT('',#776);
#228=VERTEX_POINT('',#780);
#229=VERTEX_POINT('',#783);
#230=VERTEX_POINT('',#787);
#231=VERTEX_POINT('',#790);
#232=VERTEX_POINT('',#794);
#233=VERTEX_POINT('',#797);
#234=VERTEX_POINT('',#801);
#235=VERTEX_POINT('',#804);
#236=VERTEX_POINT('',#805);
#237=VERTEX_POINT('',#807);
#238=VERTEX_POINT('',#809);
#239=VERTEX_POINT('',#813);
#240=VERTEX_POINT('',#814);
#241=VERTEX_POINT('',#816);
#242=VERTEX_POINT('',#818);
#243=VERTEX_POINT('',#820);
#244=VERTEX_POINT('',#822);
#245=VERTEX_POINT('',#829);
#246=VERTEX_POINT('',#831);
#247=VERTEX_POINT('',#833);
#248=VERTEX_POINT('',#835);
#249=VERTEX_POINT('',#837);
#250=VERTEX_POINT('',#839);
#251=VERTEX_POINT('',#841);
#252=VERTEX_POINT('',#843);
#253=VERTEX_POINT('',#846);
#254=VERTEX_POINT('',#848);
#255=VERTEX_POINT('',#851);
#256=VERTEX_POINT('',#853);
#257=VERTEX_POINT('',#855);
#258=VERTEX_POINT('',#857);
#259=VERTEX_POINT('',#860);
#260=VERTEX_POINT('',#864);
#261=VERTEX_POINT('',#878);
#262=VERTEX_POINT('',#879);
#263=VERTEX_POINT('',#884);
#264=VERTEX_POINT('',#888);
#265=VERTEX_POINT('',#892);
#266=VERTEX_POINT('',#896);
#267=VERTEX_POINT('',#900);
#268=VERTEX_POINT('',#904);
#269=EDGE_CURVE('',#223,#223,#199,.T.);
#270=EDGE_CURVE('',#224,#224,#200,.T.);
#271=EDGE_CURVE('',#225,#225,#201,.T.);
#272=EDGE_CURVE('',#226,#226,#202,.T.);
#273=EDGE_CURVE('',#227,#227,#203,.T.);
#274=EDGE_CURVE('',#227,#226,#23,.T.);
#275=EDGE_CURVE('',#228,#228,#204,.T.);
#276=EDGE_CURVE('',#229,#229,#205,.T.);
#277=EDGE_CURVE('',#229,#224,#24,.T.);
#278=EDGE_CURVE('',#230,#230,#206,.T.);
#279=EDGE_CURVE('',#231,#231,#207,.T.);
#280=EDGE_CURVE('',#231,#225,#25,.T.);
#281=EDGE_CURVE('',#232,#232,#208,.T.);
#282=EDGE_CURVE('',#233,#233,#209,.T.);
#283=EDGE_CURVE('',#233,#223,#26,.T.);
#284=EDGE_CURVE('',#234,#234,#210,.T.);
#285=EDGE_CURVE('',#235,#236,#27,.T.);
#286=EDGE_CURVE('',#237,#235,#28,.T.);
#287=EDGE_CURVE('',#238,#237,#29,.T.);
#288=EDGE_CURVE('',#236,#238,#30,.T.);
#289=EDGE_CURVE('',#239,#240,#31,.T.);
#290=EDGE_CURVE('',#239,#241,#32,.T.);
#291=EDGE_CURVE('',#242,#241,#33,.T.);
#292=EDGE_CURVE('',#243,#242,#34,.T.);
#293=EDGE_CURVE('',#243,#244,#35,.T.);
#294=EDGE_CURVE('',#240,#244,#36,.T.);
#295=EDGE_CURVE('',#236,#239,#37,.T.);
#296=EDGE_CURVE('',#241,#238,#38,.T.);
#297=EDGE_CURVE('',#235,#245,#39,.T.);
#298=EDGE_CURVE('',#245,#246,#211,.T.);
#299=EDGE_CURVE('',#246,#247,#40,.T.);
#300=EDGE_CURVE('',#247,#248,#212,.T.);
#301=EDGE_CURVE('',#248,#249,#41,.T.);
#302=EDGE_CURVE('',#249,#250,#213,.T.);
#303=EDGE_CURVE('',#250,#251,#42,.T.);
#304=EDGE_CURVE('',#251,#252,#214,.T.);
#305=EDGE_CURVE('',#252,#240,#43,.T.);
#306=EDGE_CURVE('',#244,#253,#44,.T.);
#307=EDGE_CURVE('',#253,#254,#45,.T.);
#308=EDGE_CURVE('',#254,#237,#46,.T.);
#309=EDGE_CURVE('',#255,#255,#215,.T.);
#310=EDGE_CURVE('',#256,#256,#216,.T.);
#311=EDGE_CURVE('',#257,#257,#217,.T.);
#312=EDGE_CURVE('',#258,#258,#218,.T.);
#313=EDGE_CURVE('',#259,#243,#47,.T.);
#314=EDGE_CURVE('',#259,#253,#48,.T.);
#315=EDGE_CURVE('',#260,#259,#49,.T.);
#316=EDGE_CURVE('',#260,#254,#50,.T.);
#317=EDGE_CURVE('',#255,#230,#51,.T.);
#318=EDGE_CURVE('',#256,#234,#52,.T.);
#319=EDGE_CURVE('',#242,#260,#53,.T.);
#320=EDGE_CURVE('',#257,#232,#54,.T.);
#321=EDGE_CURVE('',#258,#228,#55,.T.);
#322=EDGE_CURVE('',#261,#262,#56,.T.);
#323=EDGE_CURVE('',#262,#247,#57,.T.);
#324=EDGE_CURVE('',#261,#246,#58,.T.);
#325=EDGE_CURVE('',#263,#261,#219,.T.);
#326=EDGE_CURVE('',#263,#245,#59,.T.);
#327=EDGE_CURVE('',#264,#252,#60,.T.);
#328=EDGE_CURVE('',#264,#263,#61,.T.);
#329=EDGE_CURVE('',#265,#264,#220,.T.);
#330=EDGE_CURVE('',#265,#251,#62,.T.);
#331=EDGE_CURVE('',#266,#265,#63,.T.);
#332=EDGE_CURVE('',#266,#250,#64,.T.);
#333=EDGE_CURVE('',#267,#266,#221,.T.);
#334=EDGE_CURVE('',#267,#249,#65,.T.);
#335=EDGE_CURVE('',#268,#267,#66,.T.);
#336=EDGE_CURVE('',#268,#248,#67,.T.);
#337=EDGE_CURVE('',#262,#268,#222,.T.);
#338=ORIENTED_EDGE('',*,*,#269,.F.);
#339=ORIENTED_EDGE('',*,*,#270,.F.);
#340=ORIENTED_EDGE('',*,*,#271,.F.);
#341=ORIENTED_EDGE('',*,*,#272,.F.);
#342=ORIENTED_EDGE('',*,*,#273,.F.);
#343=ORIENTED_EDGE('',*,*,#274,.T.);
#344=ORIENTED_EDGE('',*,*,#272,.T.);
#345=ORIENTED_EDGE('',*,*,#274,.F.);
#346=ORIENTED_EDGE('',*,*,#275,.F.);
#347=ORIENTED_EDGE('',*,*,#273,.T.);
#348=ORIENTED_EDGE('',*,*,#276,.F.);
#349=ORIENTED_EDGE('',*,*,#277,.T.);
#350=ORIENTED_EDGE('',*,*,#270,.T.);
#351=ORIENTED_EDGE('',*,*,#277,.F.);
#352=ORIENTED_EDGE('',*,*,#278,.F.);
#353=ORIENTED_EDGE('',*,*,#276,.T.);
#354=ORIENTED_EDGE('',*,*,#279,.F.);
#355=ORIENTED_EDGE('',*,*,#280,.T.);
#356=ORIENTED_EDGE('',*,*,#271,.T.);
#357=ORIENTED_EDGE('',*,*,#280,.F.);
#358=ORIENTED_EDGE('',*,*,#281,.F.);
#359=ORIENTED_EDGE('',*,*,#279,.T.);
#360=ORIENTED_EDGE('',*,*,#282,.F.);
#361=ORIENTED_EDGE('',*,*,#283,.T.);
#362=ORIENTED_EDGE('',*,*,#269,.T.);
#363=ORIENTED_EDGE('',*,*,#283,.F.);
#364=ORIENTED_EDGE('',*,*,#284,.F.);
#365=ORIENTED_EDGE('',*,*,#282,.T.);
#366=ORIENTED_EDGE('',*,*,#285,.F.);
#367=ORIENTED_EDGE('',*,*,#286,.F.);
#368=ORIENTED_EDGE('',*,*,#287,.F.);
#369=ORIENTED_EDGE('',*,*,#288,.F.);
#370=ORIENTED_EDGE('',*,*,#289,.F.);
#371=ORIENTED_EDGE('',*,*,#290,.T.);
#372=ORIENTED_EDGE('',*,*,#291,.F.);
#373=ORIENTED_EDGE('',*,*,#292,.F.);
#374=ORIENTED_EDGE('',*,*,#293,.T.);
#375=ORIENTED_EDGE('',*,*,#294,.F.);
#376=ORIENTED_EDGE('',*,*,#295,.F.);
#377=ORIENTED_EDGE('',*,*,#288,.T.);
#378=ORIENTED_EDGE('',*,*,#296,.F.);
#379=ORIENTED_EDGE('',*,*,#290,.F.);
#380=ORIENTED_EDGE('',*,*,#286,.T.);
#381=ORIENTED_EDGE('',*,*,#297,.T.);
#382=ORIENTED_EDGE('',*,*,#298,.T.);
#383=ORIENTED_EDGE('',*,*,#299,.T.);
#384=ORIENTED_EDGE('',*,*,#300,.T.);
#385=ORIENTED_EDGE('',*,*,#301,.T.);
#386=ORIENTED_EDGE('',*,*,#302,.T.);
#387=ORIENTED_EDGE('',*,*,#303,.T.);
#388=ORIENTED_EDGE('',*,*,#304,.T.);
#389=ORIENTED_EDGE('',*,*,#305,.T.);
#390=ORIENTED_EDGE('',*,*,#294,.T.);
#391=ORIENTED_EDGE('',*,*,#306,.T.);
#392=ORIENTED_EDGE('',*,*,#307,.T.);
#393=ORIENTED_EDGE('',*,*,#308,.T.);
#394=ORIENTED_EDGE('',*,*,#309,.T.);
#395=ORIENTED_EDGE('',*,*,#310,.T.);
#396=ORIENTED_EDGE('',*,*,#311,.T.);
#397=ORIENTED_EDGE('',*,*,#312,.T.);
#398=ORIENTED_EDGE('',*,*,#313,.F.);
#399=ORIENTED_EDGE('',*,*,#314,.T.);
#400=ORIENTED_EDGE('',*,*,#306,.F.);
#401=ORIENTED_EDGE('',*,*,#293,.F.);
#402=ORIENTED_EDGE('',*,*,#315,.F.);
#403=ORIENTED_EDGE('',*,*,#316,.T.);
#404=ORIENTED_EDGE('',*,*,#307,.F.);
#405=ORIENTED_EDGE('',*,*,#314,.F.);
#406=ORIENTED_EDGE('',*,*,#309,.F.);
#407=ORIENTED_EDGE('',*,*,#317,.T.);
#408=ORIENTED_EDGE('',*,*,#278,.T.);
#409=ORIENTED_EDGE('',*,*,#317,.F.);
#410=ORIENTED_EDGE('',*,*,#310,.F.);
#411=ORIENTED_EDGE('',*,*,#318,.T.);
#412=ORIENTED_EDGE('',*,*,#284,.T.);
#413=ORIENTED_EDGE('',*,*,#318,.F.);
#414=ORIENTED_EDGE('',*,*,#287,.T.);
#415=ORIENTED_EDGE('',*,*,#308,.F.);
#416=ORIENTED_EDGE('',*,*,#316,.F.);
#417=ORIENTED_EDGE('',*,*,#319,.F.);
#418=ORIENTED_EDGE('',*,*,#291,.T.);
#419=ORIENTED_EDGE('',*,*,#296,.T.);
#420=ORIENTED_EDGE('',*,*,#311,.F.);
#421=ORIENTED_EDGE('',*,*,#320,.T.);
#422=ORIENTED_EDGE('',*,*,#281,.T.);
#423=ORIENTED_EDGE('',*,*,#320,.F.);
#424=ORIENTED_EDGE('',*,*,#312,.F.);
#425=ORIENTED_EDGE('',*,*,#321,.T.);
#426=ORIENTED_EDGE('',*,*,#275,.T.);
#427=ORIENTED_EDGE('',*,*,#321,.F.);
#428=ORIENTED_EDGE('',*,*,#322,.T.);
#429=ORIENTED_EDGE('',*,*,#323,.T.);
#430=ORIENTED_EDGE('',*,*,#299,.F.);
#431=ORIENTED_EDGE('',*,*,#324,.F.);
#432=ORIENTED_EDGE('',*,*,#325,.T.);
#433=ORIENTED_EDGE('',*,*,#324,.T.);
#434=ORIENTED_EDGE('',*,*,#298,.F.);
#435=ORIENTED_EDGE('',*,*,#326,.F.);
#436=ORIENTED_EDGE('',*,*,#289,.T.);
#437=ORIENTED_EDGE('',*,*,#305,.F.);
#438=ORIENTED_EDGE('',*,*,#327,.F.);
#439=ORIENTED_EDGE('',*,*,#328,.T.);
#440=ORIENTED_EDGE('',*,*,#326,.T.);
#441=ORIENTED_EDGE('',*,*,#297,.F.);
#442=ORIENTED_EDGE('',*,*,#285,.T.);
#443=ORIENTED_EDGE('',*,*,#295,.T.);
#444=ORIENTED_EDGE('',*,*,#329,.T.);
#445=ORIENTED_EDGE('',*,*,#327,.T.);
#446=ORIENTED_EDGE('',*,*,#304,.F.);
#447=ORIENTED_EDGE('',*,*,#330,.F.);
#448=ORIENTED_EDGE('',*,*,#331,.T.);
#449=ORIENTED_EDGE('',*,*,#330,.T.);
#450=ORIENTED_EDGE('',*,*,#303,.F.);
#451=ORIENTED_EDGE('',*,*,#332,.F.);
#452=ORIENTED_EDGE('',*,*,#333,.T.);
#453=ORIENTED_EDGE('',*,*,#332,.T.);
#454=ORIENTED_EDGE('',*,*,#302,.F.);
#455=ORIENTED_EDGE('',*,*,#334,.F.);
#456=ORIENTED_EDGE('',*,*,#335,.T.);
#457=ORIENTED_EDGE('',*,*,#334,.T.);
#458=ORIENTED_EDGE('',*,*,#301,.F.);
#459=ORIENTED_EDGE('',*,*,#336,.F.);
#460=ORIENTED_EDGE('',*,*,#337,.T.);
#461=ORIENTED_EDGE('',*,*,#336,.T.);
#462=ORIENTED_EDGE('',*,*,#300,.F.);
#463=ORIENTED_EDGE('',*,*,#323,.F.);
#464=ORIENTED_EDGE('',*,*,#315,.T.);
#465=ORIENTED_EDGE('',*,*,#313,.T.);
#466=ORIENTED_EDGE('',*,*,#292,.T.);
#467=ORIENTED_EDGE('',*,*,#319,.T.);
#468=ORIENTED_EDGE('',*,*,#337,.F.);
#469=ORIENTED_EDGE('',*,*,#322,.F.);
#470=ORIENTED_EDGE('',*,*,#325,.F.);
#471=ORIENTED_EDGE('',*,*,#328,.F.);
#472=ORIENTED_EDGE('',*,*,#329,.F.);
#473=ORIENTED_EDGE('',*,*,#331,.F.);
#474=ORIENTED_EDGE('',*,*,#333,.F.);
#475=ORIENTED_EDGE('',*,*,#335,.F.);
#476=PLANE('',#544);
#477=PLANE('',#546);
#478=PLANE('',#548);
#479=PLANE('',#550);
#480=PLANE('',#554);
#481=PLANE('',#558);
#482=PLANE('',#562);
#483=PLANE('',#566);
#484=PLANE('',#568);
#485=PLANE('',#569);
#486=PLANE('',#570);
#487=PLANE('',#571);
#488=PLANE('',#580);
#489=PLANE('',#581);
#490=PLANE('',#584);
#491=PLANE('',#587);
#492=PLANE('',#590);
#493=PLANE('',#593);
#494=PLANE('',#596);
#495=PLANE('',#599);
#496=PLANE('',#600);
#497=ADVANCED_FACE('',(#125),#476,.F.);
#498=ADVANCED_FACE('',(#126),#477,.F.);
#499=ADVANCED_FACE('',(#127),#478,.F.);
#500=ADVANCED_FACE('',(#128),#479,.F.);
#501=ADVANCED_FACE('',(#129),#113,.F.);
#502=ADVANCED_FACE('',(#130,#15),#480,.F.);
#503=ADVANCED_FACE('',(#131),#114,.F.);
#504=ADVANCED_FACE('',(#132,#16),#481,.F.);
#505=ADVANCED_FACE('',(#133),#115,.F.);
#506=ADVANCED_FACE('',(#134,#17),#482,.F.);
#507=ADVANCED_FACE('',(#135),#116,.F.);
#508=ADVANCED_FACE('',(#136,#18),#483,.F.);
#509=ADVANCED_FACE('',(#137),#484,.F.);
#510=ADVANCED_FACE('',(#138),#485,.F.);
#511=ADVANCED_FACE('',(#139),#486,.F.);
#512=ADVANCED_FACE('',(#140,#19,#20,#21,#22),#487,.T.);
#513=ADVANCED_FACE('',(#141),#488,.T.);
#514=ADVANCED_FACE('',(#142),#489,.T.);
#515=ADVANCED_FACE('',(#143),#117,.F.);
#516=ADVANCED_FACE('',(#144),#118,.F.);
#517=ADVANCED_FACE('',(#145),#490,.T.);
#518=ADVANCED_FACE('',(#146),#119,.F.);
#519=ADVANCED_FACE('',(#147),#120,.F.);
#520=ADVANCED_FACE('',(#148),#491,.T.);
#521=ADVANCED_FACE('',(#149),#121,.T.);
#522=ADVANCED_FACE('',(#150),#492,.T.);
#523=ADVANCED_FACE('',(#151),#122,.T.);
#524=ADVANCED_FACE('',(#152),#493,.T.);
#525=ADVANCED_FACE('',(#153),#123,.T.);
#526=ADVANCED_FACE('',(#154),#494,.T.);
#527=ADVANCED_FACE('',(#155),#124,.T.);
#528=ADVANCED_FACE('',(#156),#495,.T.);
#529=ADVANCED_FACE('',(#157),#496,.F.);
#530=CLOSED_SHELL('',(#497,#498,#499,#500,#501,#502,#503,#504,#505,#506,
#507,#508,#509,#510,#511,#512,#513,#514,#515,#516,#517,#518,#519,#520,#521,
#522,#523,#524,#525,#526,#527,#528,#529));
#531=DERIVED_UNIT_ELEMENT(#533,1.);
#532=DERIVED_UNIT_ELEMENT(#916,-3.);
#533=(
MASS_UNIT()
NAMED_UNIT(*)
SI_UNIT(.KILO.,.GRAM.)
);
#534=DERIVED_UNIT((#531,#532));
#535=MEASURE_REPRESENTATION_ITEM('density measure',
POSITIVE_RATIO_MEASURE(7850.),#534);
#536=PROPERTY_DEFINITION_REPRESENTATION(#541,#538);
#537=PROPERTY_DEFINITION_REPRESENTATION(#542,#539);
#538=REPRESENTATION('material name',(#540),#913);
#539=REPRESENTATION('density',(#535),#913);
#540=DESCRIPTIVE_REPRESENTATION_ITEM('Steel','Steel');
#541=PROPERTY_DEFINITION('material property','material name',#923);
#542=PROPERTY_DEFINITION('material property','density of part',#923);
#543=AXIS2_PLACEMENT_3D('',#762,#601,#602);
#544=AXIS2_PLACEMENT_3D('',#763,#603,#604);
#545=AXIS2_PLACEMENT_3D('',#765,#605,#606);
#546=AXIS2_PLACEMENT_3D('',#766,#607,#608);
#547=AXIS2_PLACEMENT_3D('',#768,#609,#610);
#548=AXIS2_PLACEMENT_3D('',#769,#611,#612);
#549=AXIS2_PLACEMENT_3D('',#771,#613,#614);
#550=AXIS2_PLACEMENT_3D('',#772,#615,#616);
#551=AXIS2_PLACEMENT_3D('',#774,#617,#618);
#552=AXIS2_PLACEMENT_3D('',#775,#619,#620);
#553=AXIS2_PLACEMENT_3D('',#777,#621,#622);
#554=AXIS2_PLACEMENT_3D('',#779,#624,#625);
#555=AXIS2_PLACEMENT_3D('',#781,#626,#627);
#556=AXIS2_PLACEMENT_3D('',#782,#628,#629);
#557=AXIS2_PLACEMENT_3D('',#784,#630,#631);
#558=AXIS2_PLACEMENT_3D('',#786,#633,#634);
#559=AXIS2_PLACEMENT_3D('',#788,#635,#636);
#560=AXIS2_PLACEMENT_3D('',#789,#637,#638);
#561=AXIS2_PLACEMENT_3D('',#791,#639,#640);
#562=AXIS2_PLACEMENT_3D('',#793,#642,#643);
#563=AXIS2_PLACEMENT_3D('',#795,#644,#645);
#564=AXIS2_PLACEMENT_3D('',#796,#646,#647);
#565=AXIS2_PLACEMENT_3D('',#798,#648,#649);
#566=AXIS2_PLACEMENT_3D('',#800,#651,#652);
#567=AXIS2_PLACEMENT_3D('',#802,#653,#654);
#568=AXIS2_PLACEMENT_3D('',#803,#655,#656);
#569=AXIS2_PLACEMENT_3D('',#812,#661,#662);
#570=AXIS2_PLACEMENT_3D('',#825,#669,#670);
#571=AXIS2_PLACEMENT_3D('',#828,#673,#674);
#572=AXIS2_PLACEMENT_3D('',#832,#676,#677);
#573=AXIS2_PLACEMENT_3D('',#836,#679,#680);
#574=AXIS2_PLACEMENT_3D('',#840,#682,#683);
#575=AXIS2_PLACEMENT_3D('',#844,#685,#686);
#576=AXIS2_PLACEMENT_3D('',#852,#691,#692);
#577=AXIS2_PLACEMENT_3D('',#854,#693,#694);
#578=AXIS2_PLACEMENT_3D('',#856,#695,#696);
#579=AXIS2_PLACEMENT_3D('',#858,#697,#698);
#580=AXIS2_PLACEMENT_3D('',#859,#699,#700);
#581=AXIS2_PLACEMENT_3D('',#863,#703,#704);
#582=AXIS2_PLACEMENT_3D('',#867,#707,#708);
#583=AXIS2_PLACEMENT_3D('',#869,#710,#711);
#584=AXIS2_PLACEMENT_3D('',#871,#713,#714);
#585=AXIS2_PLACEMENT_3D('',#873,#716,#717);
#586=AXIS2_PLACEMENT_3D('',#875,#719,#720);
#587=AXIS2_PLACEMENT_3D('',#877,#722,#723);
#588=AXIS2_PLACEMENT_3D('',#883,#727,#728);
#589=AXIS2_PLACEMENT_3D('',#885,#729,#730);
#590=AXIS2_PLACEMENT_3D('',#887,#732,#733);
#591=AXIS2_PLACEMENT_3D('',#891,#736,#737);
#592=AXIS2_PLACEMENT_3D('',#893,#738,#739);
#593=AXIS2_PLACEMENT_3D('',#895,#741,#742);
#594=AXIS2_PLACEMENT_3D('',#899,#745,#746);
#595=AXIS2_PLACEMENT_3D('',#901,#747,#748);
#596=AXIS2_PLACEMENT_3D('',#903,#750,#751);
#597=AXIS2_PLACEMENT_3D('',#907,#754,#755);
#598=AXIS2_PLACEMENT_3D('',#908,#756,#757);
#599=AXIS2_PLACEMENT_3D('',#909,#758,#759);
#600=AXIS2_PLACEMENT_3D('',#910,#760,#761);
#601=DIRECTION('axis',(0.,0.,1.));
#602=DIRECTION('refdir',(1.,0.,0.));
#603=DIRECTION('center_axis',(0.,0.,-1.));
#604=DIRECTION('ref_axis',(1.,0.,0.));
#605=DIRECTION('center_axis',(0.,0.,-1.));
#606=DIRECTION('ref_axis',(1.,0.,0.));
#607=DIRECTION('center_axis',(0.,0.,-1.));
#608=DIRECTION('ref_axis',(1.,0.,0.));
#609=DIRECTION('center_axis',(0.,0.,-1.));
#610=DIRECTION('ref_axis',(1.,0.,0.));
#611=DIRECTION('center_axis',(0.,0.,-1.));
#612=DIRECTION('ref_axis',(1.,0.,0.));
#613=DIRECTION('center_axis',(0.,0.,-1.));
#614=DIRECTION('ref_axis',(1.,0.,0.));
#615=DIRECTION('center_axis',(0.,0.,-1.));
#616=DIRECTION('ref_axis',(1.,0.,0.));
#617=DIRECTION('center_axis',(0.,0.,-1.));
#618=DIRECTION('ref_axis',(1.,0.,0.));
#619=DIRECTION('center_axis',(0.,0.,1.));
#620=DIRECTION('ref_axis',(1.,0.,0.));
#621=DIRECTION('center_axis',(0.,0.,-1.));
#622=DIRECTION('ref_axis',(1.,0.,0.));
#623=DIRECTION('',(0.,0.,-1.));
#624=DIRECTION('center_axis',(0.,0.,-1.));
#625=DIRECTION('ref_axis',(1.,0.,0.));
#626=DIRECTION('center_axis',(0.,0.,-1.));
#627=DIRECTION('ref_axis',(1.,0.,0.));
#628=DIRECTION('center_axis',(0.,0.,1.));
#629=DIRECTION('ref_axis',(1.,0.,0.));
#630=DIRECTION('center_axis',(0.,0.,-1.));
#631=DIRECTION('ref_axis',(1.,0.,0.));
#632=DIRECTION('',(0.,0.,-1.));
#633=DIRECTION('center_axis',(0.,0.,-1.));
#634=DIRECTION('ref_axis',(1.,0.,0.));
#635=DIRECTION('center_axis',(0.,0.,-1.));
#636=DIRECTION('ref_axis',(1.,0.,0.));
#637=DIRECTION('center_axis',(0.,0.,1.));
#638=DIRECTION('ref_axis',(1.,0.,0.));
#639=DIRECTION('center_axis',(0.,0.,-1.));
#640=DIRECTION('ref_axis',(1.,0.,0.));
#641=DIRECTION('',(0.,0.,-1.));
#642=DIRECTION('center_axis',(0.,0.,-1.));
#643=DIRECTION('ref_axis',(1.,0.,0.));
#644=DIRECTION('center_axis',(0.,0.,-1.));
#645=DIRECTION('ref_axis',(1.,0.,0.));
#646=DIRECTION('center_axis',(0.,0.,1.));
#647=DIRECTION('ref_axis',(1.,0.,0.));
#648=DIRECTION('center_axis',(0.,0.,-1.));
#649=DIRECTION('ref_axis',(1.,0.,0.));
#650=DIRECTION('',(0.,0.,-1.));
#651=DIRECTION('center_axis',(0.,0.,-1.));
#652=DIRECTION('ref_axis',(1.,0.,0.));
#653=DIRECTION('center_axis',(0.,0.,-1.));
#654=DIRECTION('ref_axis',(1.,0.,0.));
#655=DIRECTION('center_axis',(-1.,0.,0.));
#656=DIRECTION('ref_axis',(0.,0.,-1.));
#657=DIRECTION('',(0.,0.,-1.));
#658=DIRECTION('',(0.,1.,0.));
#659=DIRECTION('',(0.,0.,1.));
#660=DIRECTION('',(0.,-1.,0.));
#661=DIRECTION('center_axis',(1.,0.,0.));
#662=DIRECTION('ref_axis',(0.,0.,1.));
#663=DIRECTION('',(0.,0.,1.));
#664=DIRECTION('',(0.,-1.,0.));
#665=DIRECTION('',(0.,0.,1.));
#666=DIRECTION('',(0.,1.,0.));
#667=DIRECTION('',(0.,0.,1.));
#668=DIRECTION('',(0.,-1.,0.));
#669=DIRECTION('center_axis',(0.,0.,-1.));
#670=DIRECTION('ref_axis',(1.,1.68056465411566E-16,0.));
#671=DIRECTION('',(1.,0.,0.));
#672=DIRECTION('',(-1.,0.,0.));
#673=DIRECTION('center_axis',(0.,0.,1.));
#674=DIRECTION('ref_axis',(1.,0.,0.));
#675=DIRECTION('',(-1.,0.,0.));
#676=DIRECTION('center_axis',(0.,0.,1.));
#677=DIRECTION('ref_axis',(0.,1.,0.));
#678=DIRECTION('',(0.,-1.,0.));
#679=DIRECTION('center_axis',(0.,0.,1.));
#680=DIRECTION('ref_axis',(-1.,2.99760216648793E-15,0.));
#681=DIRECTION('',(1.,0.,0.));
#682=DIRECTION('center_axis',(0.,0.,1.));
#683=DIRECTION('ref_axis',(0.,-1.,0.));
#684=DIRECTION('',(0.,1.,0.));
#685=DIRECTION('center_axis',(0.,0.,1.));
#686=DIRECTION('ref_axis',(1.,0.,0.));
#687=DIRECTION('',(-1.,0.,0.));
#688=DIRECTION('',(-1.,4.59893594645127E-33,0.));
#689=DIRECTION('',(2.53094673542753E-33,1.,0.));
#690=DIRECTION('',(1.,0.,0.));
#691=DIRECTION('center_axis',(0.,0.,-1.));
#692=DIRECTION('ref_axis',(1.,0.,0.));
#693=DIRECTION('center_axis',(0.,0.,-1.));
#694=DIRECTION('ref_axis',(1.,0.,0.));
#695=DIRECTION('center_axis',(0.,0.,-1.));
#696=DIRECTION('ref_axis',(1.,0.,0.));
#697=DIRECTION('center_axis',(0.,0.,-1.));
#698=DIRECTION('ref_axis',(1.,0.,0.));
#699=DIRECTION('center_axis',(4.59893594645127E-33,1.,0.));
#700=DIRECTION('ref_axis',(-1.,4.59893594645127E-33,0.));
#701=DIRECTION('',(1.,-4.59893594645127E-33,0.));
#702=DIRECTION('',(0.,0.,1.));
#703=DIRECTION('center_axis',(1.,-2.53094673542753E-33,0.));
#704=DIRECTION('ref_axis',(2.53094673542753E-33,1.,0.));
#705=DIRECTION('',(-2.53094673542753E-33,-1.,0.));
#706=DIRECTION('',(0.,0.,1.));
#707=DIRECTION('center_axis',(0.,0.,1.));
#708=DIRECTION('ref_axis',(1.,0.,0.));
#709=DIRECTION('',(0.,0.,-1.));
#710=DIRECTION('center_axis',(0.,0.,1.));
#711=DIRECTION('ref_axis',(1.,0.,0.));
#712=DIRECTION('',(0.,0.,-1.));
#713=DIRECTION('center_axis',(0.,-1.,0.));
#714=DIRECTION('ref_axis',(1.,0.,0.));
#715=DIRECTION('',(-1.,0.,0.));
#716=DIRECTION('center_axis',(0.,0.,1.));
#717=DIRECTION('ref_axis',(1.,0.,0.));
#718=DIRECTION('',(0.,0.,-1.));
#719=DIRECTION('center_axis',(0.,0.,1.));
#720=DIRECTION('ref_axis',(1.,0.,0.));
#721=DIRECTION('',(0.,0.,-1.));
#722=DIRECTION('center_axis',(-1.,0.,0.));
#723=DIRECTION('ref_axis',(0.,-1.,0.));
#724=DIRECTION('',(0.,-1.,0.));
#725=DIRECTION('',(0.,0.,1.));
#726=DIRECTION('',(0.,0.,1.));
#727=DIRECTION('center_axis',(0.,0.,1.));
#728=DIRECTION('ref_axis',(0.,1.,0.));
#729=DIRECTION('center_axis',(0.,0.,1.));
#730=DIRECTION('ref_axis',(0.,1.,0.));
#731=DIRECTION('',(0.,0.,1.));
#732=DIRECTION('center_axis',(0.,1.,0.));
#733=DIRECTION('ref_axis',(-1.,0.,0.));
#734=DIRECTION('',(0.,0.,1.));
#735=DIRECTION('',(-1.,0.,0.));
#736=DIRECTION('center_axis',(0.,0.,1.));
#737=DIRECTION('ref_axis',(1.,0.,0.));
#738=DIRECTION('center_axis',(0.,0.,1.));
#739=DIRECTION('ref_axis',(1.,0.,0.));
#740=DIRECTION('',(0.,0.,1.));
#741=DIRECTION('center_axis',(1.,0.,0.));
#742=DIRECTION('ref_axis',(0.,1.,0.));
#743=DIRECTION('',(0.,1.,0.));
#744=DIRECTION('',(0.,0.,1.));
#745=DIRECTION('center_axis',(0.,0.,1.));
#746=DIRECTION('ref_axis',(0.,-1.,0.));
#747=DIRECTION('center_axis',(0.,0.,1.));
#748=DIRECTION('ref_axis',(0.,-1.,0.));
#749=DIRECTION('',(0.,0.,1.));
#750=DIRECTION('center_axis',(0.,-1.,0.));
#751=DIRECTION('ref_axis',(1.,0.,0.));
#752=DIRECTION('',(1.,0.,0.));
#753=DIRECTION('',(0.,0.,1.));
#754=DIRECTION('center_axis',(0.,0.,1.));
#755=DIRECTION('ref_axis',(-1.,2.99760216648793E-15,0.));
#756=DIRECTION('center_axis',(0.,0.,1.));
#757=DIRECTION('ref_axis',(-1.,2.99760216648793E-15,0.));
#758=DIRECTION('center_axis',(0.,0.,1.));
#759=DIRECTION('ref_axis',(1.,0.,0.));
#760=DIRECTION('center_axis',(0.,0.,1.));
#761=DIRECTION('ref_axis',(1.,0.,0.));
#762=CARTESIAN_POINT('',(0.,0.,0.));
#763=CARTESIAN_POINT('Origin',(100.9,84.9,2.));
#764=CARTESIAN_POINT('',(99.2,84.9,2.));
#765=CARTESIAN_POINT('Origin',(100.9,84.9,2.));
#766=CARTESIAN_POINT('Origin',(-4.99999999999999,84.9,2.));
#767=CARTESIAN_POINT('',(-6.69999999999998,84.9,2.));
#768=CARTESIAN_POINT('Origin',(-4.99999999999999,84.9,2.));
#769=CARTESIAN_POINT('Origin',(100.9,-4.99999999999999,2.));
#770=CARTESIAN_POINT('',(99.2,-4.99999999999999,2.));
#771=CARTESIAN_POINT('Origin',(100.9,-4.99999999999999,2.));
#772=CARTESIAN_POINT('Origin',(-5.00000000000001,-5.00000000000001,2.));
#773=CARTESIAN_POINT('',(-6.70000000000001,-5.00000000000001,2.));
#774=CARTESIAN_POINT('Origin',(-5.00000000000001,-5.00000000000001,2.));
#775=CARTESIAN_POINT('Origin',(-5.00000000000001,-5.00000000000001,0.));
#776=CARTESIAN_POINT('',(-6.70000000000001,-5.00000000000001,11.));
#777=CARTESIAN_POINT('Origin',(-5.00000000000001,-5.00000000000001,11.));
#778=CARTESIAN_POINT('',(-6.70000000000001,-5.00000000000001,0.));
#779=CARTESIAN_POINT('Origin',(-5.00000000000001,-5.00000000000001,11.));
#780=CARTESIAN_POINT('',(-7.35000000000001,-5.00000000000001,11.));
#781=CARTESIAN_POINT('Origin',(-5.00000000000001,-5.00000000000001,11.));
#782=CARTESIAN_POINT('Origin',(-4.99999999999999,84.9,0.));
#783=CARTESIAN_POINT('',(-6.69999999999998,84.9,11.));
#784=CARTESIAN_POINT('Origin',(-4.99999999999999,84.9,11.));
#785=CARTESIAN_POINT('',(-6.69999999999998,84.9,0.));
#786=CARTESIAN_POINT('Origin',(-4.99999999999999,84.9,11.));
#787=CARTESIAN_POINT('',(-7.34999999999999,84.9,11.));
#788=CARTESIAN_POINT('Origin',(-5.,84.9,11.));
#789=CARTESIAN_POINT('Origin',(100.9,-4.99999999999999,0.));
#790=CARTESIAN_POINT('',(99.2,-4.99999999999999,11.));
#791=CARTESIAN_POINT('Origin',(100.9,-4.99999999999999,11.));
#792=CARTESIAN_POINT('',(99.2,-4.99999999999999,0.));
#793=CARTESIAN_POINT('Origin',(100.9,-4.99999999999999,11.));
#794=CARTESIAN_POINT('',(98.55,-4.99999999999999,11.));
#795=CARTESIAN_POINT('Origin',(100.9,-5.,11.));
#796=CARTESIAN_POINT('Origin',(100.9,84.9,0.));
#797=CARTESIAN_POINT('',(99.2,84.9,11.));
#798=CARTESIAN_POINT('Origin',(100.9,84.9,11.));
#799=CARTESIAN_POINT('',(99.2,84.9,0.));
#800=CARTESIAN_POINT('Origin',(100.9,84.9,11.));
#801=CARTESIAN_POINT('',(98.55,84.9,11.));
#802=CARTESIAN_POINT('Origin',(100.9,84.9,11.));
#803=CARTESIAN_POINT('Origin',(71.3,89.9,15.));
#804=CARTESIAN_POINT('',(71.3,89.9,15.));
#805=CARTESIAN_POINT('',(71.3,89.9,11.9999999552965));
#806=CARTESIAN_POINT('',(71.3,89.9,7.5));
#807=CARTESIAN_POINT('',(71.3,79.9,15.));
#808=CARTESIAN_POINT('',(71.3,64.925,15.));
#809=CARTESIAN_POINT('',(71.3,79.9,11.9999999552965));
#810=CARTESIAN_POINT('',(71.3,79.9,7.5));
#811=CARTESIAN_POINT('',(71.3,89.9,11.9999999552965));
#812=CARTESIAN_POINT('Origin',(95.9,89.9,11.9999999552965));
#813=CARTESIAN_POINT('',(95.9,89.9,11.9999999552965));
#814=CARTESIAN_POINT('',(95.9,89.9,15.));
#815=CARTESIAN_POINT('',(95.9,89.9,5.99999997764826));
#816=CARTESIAN_POINT('',(95.9,79.9,11.9999999552965));
#817=CARTESIAN_POINT('',(95.9,89.9,11.9999999552965));
#818=CARTESIAN_POINT('',(95.9,79.9,5.));
#819=CARTESIAN_POINT('',(95.9,79.9,0.));
#820=CARTESIAN_POINT('',(95.9,0.,5.));
#821=CARTESIAN_POINT('',(95.9,-4.41037957264677E-31,5.));
#822=CARTESIAN_POINT('',(95.9,0.,15.));
#823=CARTESIAN_POINT('',(95.9,-4.41037957264677E-31,0.));
#824=CARTESIAN_POINT('',(95.9,64.925,15.));
#825=CARTESIAN_POINT('Origin',(71.3,89.9,11.9999999552965));
#826=CARTESIAN_POINT('',(86.1,89.9,11.9999999552965));
#827=CARTESIAN_POINT('',(35.65,79.9,11.9999999552965));
#828=CARTESIAN_POINT('Origin',(47.95,39.95,15.));
#829=CARTESIAN_POINT('',(-5.,89.9,15.));
#830=CARTESIAN_POINT('',(100.9,89.9,15.));
#831=CARTESIAN_POINT('',(-10.,84.9,15.));
#832=CARTESIAN_POINT('Origin',(-5.,84.9,15.));
#833=CARTESIAN_POINT('',(-10.,-4.99999999999999,15.));
#834=CARTESIAN_POINT('',(-10.,84.9,15.));
#835=CARTESIAN_POINT('',(-5.,-10.,15.));
#836=CARTESIAN_POINT('Origin',(-5.00000000000001,-5.00000000000001,15.));
#837=CARTESIAN_POINT('',(100.9,-10.,15.));
#838=CARTESIAN_POINT('',(-5.,-10.,15.));
#839=CARTESIAN_POINT('',(105.9,-5.,15.));
#840=CARTESIAN_POINT('Origin',(100.9,-5.,15.));
#841=CARTESIAN_POINT('',(105.9,84.9,15.));
#842=CARTESIAN_POINT('',(105.9,-5.,15.));
#843=CARTESIAN_POINT('',(100.9,89.9,15.));
#844=CARTESIAN_POINT('Origin',(100.9,84.9,15.));
#845=CARTESIAN_POINT('',(100.9,89.9,15.));
#846=CARTESIAN_POINT('',(0.,0.,15.));
#847=CARTESIAN_POINT('',(0.,0.,15.));
#848=CARTESIAN_POINT('',(0.,79.9,15.));
#849=CARTESIAN_POINT('',(2.0222264416066E-31,79.9,15.));
#850=CARTESIAN_POINT('',(95.9,79.9,15.));
#851=CARTESIAN_POINT('',(-7.35,84.9,15.));
#852=CARTESIAN_POINT('Origin',(-5.,84.9,15.));
#853=CARTESIAN_POINT('',(98.55,84.9,15.));
#854=CARTESIAN_POINT('Origin',(100.9,84.9,15.));
#855=CARTESIAN_POINT('',(98.55,-5.,15.));
#856=CARTESIAN_POINT('Origin',(100.9,-5.,15.));
#857=CARTESIAN_POINT('',(-7.35000000000001,-5.00000000000001,15.));
#858=CARTESIAN_POINT('Origin',(-5.00000000000001,-5.00000000000001,15.));
#859=CARTESIAN_POINT('Origin',(95.9,-4.41037957264677E-31,0.));
#860=CARTESIAN_POINT('',(0.,0.,5.));
#861=CARTESIAN_POINT('',(0.,0.,5.));
#862=CARTESIAN_POINT('',(0.,0.,0.));
#863=CARTESIAN_POINT('Origin',(0.,0.,0.));
#864=CARTESIAN_POINT('',(2.0222264416066E-31,79.9,5.));
#865=CARTESIAN_POINT('',(2.0222264416066E-31,79.9,5.));
#866=CARTESIAN_POINT('',(2.0222264416066E-31,79.9,0.));
#867=CARTESIAN_POINT('Origin',(-5.,84.9,0.));
#868=CARTESIAN_POINT('',(-7.35,84.9,0.));
#869=CARTESIAN_POINT('Origin',(100.9,84.9,0.));
#870=CARTESIAN_POINT('',(98.55,84.9,0.));
#871=CARTESIAN_POINT('Origin',(0.,79.9,0.));
#872=CARTESIAN_POINT('',(95.9,79.9,5.));
#873=CARTESIAN_POINT('Origin',(100.9,-5.,0.));
#874=CARTESIAN_POINT('',(98.55,-5.,0.));
#875=CARTESIAN_POINT('Origin',(-5.00000000000001,-5.00000000000001,0.));
#876=CARTESIAN_POINT('',(-7.35000000000001,-5.00000000000001,0.));
#877=CARTESIAN_POINT('Origin',(-10.,84.9,0.));
#878=CARTESIAN_POINT('',(-10.,84.9,0.));
#879=CARTESIAN_POINT('',(-10.,-4.99999999999999,0.));
#880=CARTESIAN_POINT('',(-10.,84.9,0.));
#881=CARTESIAN_POINT('',(-10.,-4.99999999999999,0.));
#882=CARTESIAN_POINT('',(-10.,84.9,0.));
#883=CARTESIAN_POINT('Origin',(-5.,84.9,0.));
#884=CARTESIAN_POINT('',(-5.,89.9,0.));
#885=CARTESIAN_POINT('Origin',(-5.,84.9,0.));
#886=CARTESIAN_POINT('',(-5.,89.9,0.));
#887=CARTESIAN_POINT('Origin',(100.9,89.9,0.));
#888=CARTESIAN_POINT('',(100.9,89.9,0.));
#889=CARTESIAN_POINT('',(100.9,89.9,0.));
#890=CARTESIAN_POINT('',(100.9,89.9,0.));
#891=CARTESIAN_POINT('Origin',(100.9,84.9,0.));
#892=CARTESIAN_POINT('',(105.9,84.9,0.));
#893=CARTESIAN_POINT('Origin',(100.9,84.9,0.));
#894=CARTESIAN_POINT('',(105.9,84.9,0.));
#895=CARTESIAN_POINT('Origin',(105.9,-5.,0.));
#896=CARTESIAN_POINT('',(105.9,-5.,0.));
#897=CARTESIAN_POINT('',(105.9,-5.,0.));
#898=CARTESIAN_POINT('',(105.9,-5.,0.));
#899=CARTESIAN_POINT('Origin',(100.9,-5.,0.));
#900=CARTESIAN_POINT('',(100.9,-10.,0.));
#901=CARTESIAN_POINT('Origin',(100.9,-5.,0.));
#902=CARTESIAN_POINT('',(100.9,-10.,0.));
#903=CARTESIAN_POINT('Origin',(-5.,-10.,0.));
#904=CARTESIAN_POINT('',(-5.,-10.,0.));
#905=CARTESIAN_POINT('',(-5.,-10.,0.));
#906=CARTESIAN_POINT('',(-5.,-10.,0.));
#907=CARTESIAN_POINT('Origin',(-5.00000000000001,-5.00000000000001,0.));
#908=CARTESIAN_POINT('Origin',(-5.00000000000001,-5.00000000000001,0.));
#909=CARTESIAN_POINT('Origin',(47.95,39.95,5.));
#910=CARTESIAN_POINT('Origin',(47.95,39.95,0.));
#911=UNCERTAINTY_MEASURE_WITH_UNIT(LENGTH_MEASURE(0.01),#915,
'DISTANCE_ACCURACY_VALUE',
'Maximum model space distance between geometric entities at asserted c
onnectivities');
#912=UNCERTAINTY_MEASURE_WITH_UNIT(LENGTH_MEASURE(0.01),#915,
'DISTANCE_ACCURACY_VALUE',
'Maximum model space distance between geometric entities at asserted c
onnectivities');
#913=(
GEOMETRIC_REPRESENTATION_CONTEXT(3)
GLOBAL_UNCERTAINTY_ASSIGNED_CONTEXT((#911))
GLOBAL_UNIT_ASSIGNED_CONTEXT((#915,#917,#918))
REPRESENTATION_CONTEXT('','3D')
);
#914=(
GEOMETRIC_REPRESENTATION_CONTEXT(3)
GLOBAL_UNCERTAINTY_ASSIGNED_CONTEXT((#912))
GLOBAL_UNIT_ASSIGNED_CONTEXT((#915,#917,#918))
REPRESENTATION_CONTEXT('','3D')
);
#915=(
LENGTH_UNIT()
NAMED_UNIT(*)
SI_UNIT(.MILLI.,.METRE.)
);
#916=(
LENGTH_UNIT()
NAMED_UNIT(*)
SI_UNIT($,.METRE.)
);
#917=(
NAMED_UNIT(*)
PLANE_ANGLE_UNIT()
SI_UNIT($,.RADIAN.)
);
#918=(
NAMED_UNIT(*)
SI_UNIT($,.STERADIAN.)
SOLID_ANGLE_UNIT()
);
#919=SHAPE_DEFINITION_REPRESENTATION(#920,#921);
#920=PRODUCT_DEFINITION_SHAPE('',$,#923);
#921=SHAPE_REPRESENTATION('',(#543),#913);
#922=PRODUCT_DEFINITION_CONTEXT('part definition',#927,'design');
#923=PRODUCT_DEFINITION('2026-06-28-11-16-43-269','bottom shell final',
#924,#922);
#924=PRODUCT_DEFINITION_FORMATION('',$,#929);
#925=PRODUCT_RELATED_PRODUCT_CATEGORY('bottom shell final',
'bottom shell final',(#929));
#926=APPLICATION_PROTOCOL_DEFINITION('international standard',
'automotive_design',2009,#927);
#927=APPLICATION_CONTEXT(
'Core Data for Automotive Mechanical Design Process');
#928=PRODUCT_CONTEXT('part definition',#927,'mechanical');
#929=PRODUCT('2026-06-28-11-16-43-269','bottom shell final',$,(#928));
#930=PRESENTATION_STYLE_ASSIGNMENT((#931));
#931=SURFACE_STYLE_USAGE(.BOTH.,#932);
#932=SURFACE_SIDE_STYLE('',(#933));
#933=SURFACE_STYLE_FILL_AREA(#934);
#934=FILL_AREA_STYLE('Plastic - Matte (Green)',(#935));
#935=FILL_AREA_STYLE_COLOUR('Plastic - Matte (Green)',#936);
#936=COLOUR_RGB('Plastic - Matte (Green)',0.266666666666667,0.588235294117647,
0.282352941176471);
ENDSEC;
END-ISO-10303-21;
